<mxfile host="app.diagrams.net" modified="2023-11-21T12:54:54.781Z" agent="Mozilla/5.0 (Windows NT 10.0; Win64; x64) AppleWebKit/537.36 (KHTML, like Gecko) Chrome/118.0.0.0 Safari/537.36" etag="wTp6AbErqWfx461NjQWC" version="22.1.3" type="github">
  <diagram name="第 1 页" id="t75bReEVC3L_tU_QWsq6">
    <mxGraphModel dx="1302" dy="685" grid="1" gridSize="10" guides="1" tooltips="1" connect="1" arrows="1" fold="1" page="1" pageScale="1" pageWidth="827" pageHeight="1169" math="0" shadow="0">
      <root>
        <mxCell id="0" />
        <mxCell id="1" parent="0" />
        <mxCell id="c8WzMOXJUV4LEf6w_ohf-1" value="" style="rounded=0;whiteSpace=wrap;html=1;fillColor=#EA6B66;strokeColor=#b85450;rotation=90;" vertex="1" parent="1">
          <mxGeometry x="130" y="210" width="20" height="60" as="geometry" />
        </mxCell>
        <mxCell id="c8WzMOXJUV4LEf6w_ohf-2" value="" style="rounded=0;whiteSpace=wrap;html=1;fillColor=#EA6B66;strokeColor=#b85450;rotation=90;" vertex="1" parent="1">
          <mxGeometry x="130" y="231" width="20" height="60" as="geometry" />
        </mxCell>
        <mxCell id="c8WzMOXJUV4LEf6w_ohf-3" value="" style="rounded=0;whiteSpace=wrap;html=1;fillColor=#dae8fc;strokeColor=#6c8ebf;rotation=90;" vertex="1" parent="1">
          <mxGeometry x="130" y="251" width="20" height="60" as="geometry" />
        </mxCell>
        <mxCell id="c8WzMOXJUV4LEf6w_ohf-4" value="" style="rounded=0;whiteSpace=wrap;html=1;fillColor=#dae8fc;strokeColor=#6c8ebf;rotation=90;" vertex="1" parent="1">
          <mxGeometry x="130" y="271.38" width="20" height="60" as="geometry" />
        </mxCell>
        <mxCell id="c8WzMOXJUV4LEf6w_ohf-5" value="" style="rounded=0;whiteSpace=wrap;html=1;fillColor=#fa6800;strokeColor=#C73500;fontColor=#000000;rotation=90;" vertex="1" parent="1">
          <mxGeometry x="130" y="291" width="20" height="60" as="geometry" />
        </mxCell>
        <mxCell id="c8WzMOXJUV4LEf6w_ohf-6" value="" style="rounded=0;whiteSpace=wrap;html=1;fillColor=#fa6800;strokeColor=#C73500;fontColor=#000000;rotation=90;" vertex="1" parent="1">
          <mxGeometry x="130" y="311" width="20" height="60" as="geometry" />
        </mxCell>
        <mxCell id="c8WzMOXJUV4LEf6w_ohf-7" value="" style="rounded=0;whiteSpace=wrap;html=1;fillColor=#1ba1e2;strokeColor=#006EAF;fontColor=#ffffff;rotation=90;" vertex="1" parent="1">
          <mxGeometry x="130" y="331.38" width="20" height="60" as="geometry" />
        </mxCell>
        <mxCell id="c8WzMOXJUV4LEf6w_ohf-8" value="" style="rounded=0;whiteSpace=wrap;html=1;fillColor=#1ba1e2;strokeColor=#006EAF;fontColor=#ffffff;rotation=90;" vertex="1" parent="1">
          <mxGeometry x="130" y="351" width="20" height="60" as="geometry" />
        </mxCell>
        <mxCell id="c8WzMOXJUV4LEf6w_ohf-9" value="" style="rounded=0;whiteSpace=wrap;html=1;fillColor=#1ba1e2;strokeColor=#006EAF;fontColor=#ffffff;rotation=90;" vertex="1" parent="1">
          <mxGeometry x="130" y="371" width="20" height="60" as="geometry" />
        </mxCell>
        <mxCell id="c8WzMOXJUV4LEf6w_ohf-10" value="" style="shape=curlyBracket;whiteSpace=wrap;html=1;rounded=1;labelPosition=left;verticalLabelPosition=middle;align=right;verticalAlign=middle;rotation=0;" vertex="1" parent="1">
          <mxGeometry x="60" y="261.38" width="20" height="130" as="geometry" />
        </mxCell>
        <mxCell id="c8WzMOXJUV4LEf6w_ohf-11" value="" style="shape=curlyBracket;whiteSpace=wrap;html=1;rounded=1;labelPosition=left;verticalLabelPosition=middle;align=right;verticalAlign=middle;rotation=0;" vertex="1" parent="1">
          <mxGeometry x="60" y="412.38" width="20" height="130" as="geometry" />
        </mxCell>
        <mxCell id="c8WzMOXJUV4LEf6w_ohf-12" value="" style="rounded=0;whiteSpace=wrap;html=1;fillColor=#EA6B66;strokeColor=#b85450;rotation=90;" vertex="1" parent="1">
          <mxGeometry x="130" y="391.38" width="20" height="60" as="geometry" />
        </mxCell>
        <mxCell id="c8WzMOXJUV4LEf6w_ohf-13" value="" style="rounded=0;whiteSpace=wrap;html=1;fillColor=#EA6B66;strokeColor=#b85450;rotation=90;" vertex="1" parent="1">
          <mxGeometry x="130" y="412.38" width="20" height="60" as="geometry" />
        </mxCell>
        <mxCell id="c8WzMOXJUV4LEf6w_ohf-14" value="" style="rounded=0;whiteSpace=wrap;html=1;fillColor=#dae8fc;strokeColor=#6c8ebf;rotation=90;" vertex="1" parent="1">
          <mxGeometry x="130" y="432.38" width="20" height="60" as="geometry" />
        </mxCell>
        <mxCell id="c8WzMOXJUV4LEf6w_ohf-15" value="" style="rounded=0;whiteSpace=wrap;html=1;fillColor=#dae8fc;strokeColor=#6c8ebf;rotation=90;" vertex="1" parent="1">
          <mxGeometry x="130" y="452.76" width="20" height="60" as="geometry" />
        </mxCell>
        <mxCell id="c8WzMOXJUV4LEf6w_ohf-16" value="" style="rounded=0;whiteSpace=wrap;html=1;fillColor=#fa6800;strokeColor=#C73500;fontColor=#000000;rotation=90;" vertex="1" parent="1">
          <mxGeometry x="130" y="472.38" width="20" height="60" as="geometry" />
        </mxCell>
        <mxCell id="c8WzMOXJUV4LEf6w_ohf-17" value="" style="rounded=0;whiteSpace=wrap;html=1;fillColor=#fa6800;strokeColor=#C73500;fontColor=#000000;rotation=90;" vertex="1" parent="1">
          <mxGeometry x="130" y="492.38" width="20" height="60" as="geometry" />
        </mxCell>
        <mxCell id="c8WzMOXJUV4LEf6w_ohf-18" value="" style="rounded=0;whiteSpace=wrap;html=1;fillColor=#1ba1e2;strokeColor=#006EAF;fontColor=#ffffff;rotation=90;" vertex="1" parent="1">
          <mxGeometry x="130" y="512.76" width="20" height="60" as="geometry" />
        </mxCell>
        <mxCell id="c8WzMOXJUV4LEf6w_ohf-19" value="" style="rounded=0;whiteSpace=wrap;html=1;fillColor=#1ba1e2;strokeColor=#006EAF;fontColor=#ffffff;rotation=90;" vertex="1" parent="1">
          <mxGeometry x="130" y="532.38" width="20" height="60" as="geometry" />
        </mxCell>
        <mxCell id="c8WzMOXJUV4LEf6w_ohf-20" value="" style="rounded=0;whiteSpace=wrap;html=1;fillColor=#1ba1e2;strokeColor=#006EAF;fontColor=#ffffff;rotation=90;" vertex="1" parent="1">
          <mxGeometry x="130" y="552.38" width="20" height="60" as="geometry" />
        </mxCell>
        <mxCell id="c8WzMOXJUV4LEf6w_ohf-21" value="0" style="text;html=1;strokeColor=none;fillColor=none;align=center;verticalAlign=middle;whiteSpace=wrap;rounded=0;" vertex="1" parent="1">
          <mxGeometry y="311.31" width="60" height="30" as="geometry" />
        </mxCell>
        <mxCell id="c8WzMOXJUV4LEf6w_ohf-22" value="1" style="text;html=1;strokeColor=none;fillColor=none;align=center;verticalAlign=middle;whiteSpace=wrap;rounded=0;rotation=0;" vertex="1" parent="1">
          <mxGeometry y="460.69" width="60" height="30" as="geometry" />
        </mxCell>
        <mxCell id="c8WzMOXJUV4LEf6w_ohf-27" value="patch block" style="rounded=0;whiteSpace=wrap;html=1;rotation=-90;fillColor=#dae8fc;strokeColor=#6c8ebf;" vertex="1" parent="1">
          <mxGeometry x="150" y="391.38" width="400.61" height="27.58" as="geometry" />
        </mxCell>
        <mxCell id="c8WzMOXJUV4LEf6w_ohf-28" value="" style="rounded=0;whiteSpace=wrap;html=1;fillColor=#EA6B66;strokeColor=#b85450;rotation=90;" vertex="1" parent="1">
          <mxGeometry x="210" y="180.38" width="20" height="60" as="geometry" />
        </mxCell>
        <mxCell id="c8WzMOXJUV4LEf6w_ohf-48" value="" style="edgeStyle=orthogonalEdgeStyle;rounded=0;orthogonalLoop=1;jettySize=auto;html=1;" edge="1" parent="1" source="c8WzMOXJUV4LEf6w_ohf-30" target="c8WzMOXJUV4LEf6w_ohf-47">
          <mxGeometry relative="1" as="geometry" />
        </mxCell>
        <mxCell id="c8WzMOXJUV4LEf6w_ohf-30" value="" style="rounded=0;whiteSpace=wrap;html=1;fillColor=#EA6B66;strokeColor=#b85450;rotation=90;" vertex="1" parent="1">
          <mxGeometry x="210" y="240.38" width="20" height="60" as="geometry" />
        </mxCell>
        <mxCell id="c8WzMOXJUV4LEf6w_ohf-31" value="" style="rounded=0;whiteSpace=wrap;html=1;fillColor=#EA6B66;strokeColor=#b85450;rotation=90;" vertex="1" parent="1">
          <mxGeometry x="210" y="271.38" width="20" height="60" as="geometry" />
        </mxCell>
        <mxCell id="c8WzMOXJUV4LEf6w_ohf-32" value="" style="endArrow=none;dashed=1;html=1;dashPattern=1 3;strokeWidth=2;rounded=0;" edge="1" parent="1">
          <mxGeometry width="50" height="50" relative="1" as="geometry">
            <mxPoint x="220" y="487.24" as="sourcePoint" />
            <mxPoint x="219.5" y="331.38" as="targetPoint" />
          </mxGeometry>
        </mxCell>
        <mxCell id="c8WzMOXJUV4LEf6w_ohf-33" value="" style="rounded=0;whiteSpace=wrap;html=1;fillColor=#1ba1e2;strokeColor=#006EAF;fontColor=#ffffff;rotation=90;" vertex="1" parent="1">
          <mxGeometry x="210" y="557.38" width="20" height="60" as="geometry" />
        </mxCell>
        <mxCell id="c8WzMOXJUV4LEf6w_ohf-34" value="" style="rounded=0;whiteSpace=wrap;html=1;fillColor=#1ba1e2;strokeColor=#006EAF;fontColor=#ffffff;rotation=90;" vertex="1" parent="1">
          <mxGeometry x="210" y="576.86" width="20" height="60" as="geometry" />
        </mxCell>
        <mxCell id="c8WzMOXJUV4LEf6w_ohf-35" value="" style="rounded=0;whiteSpace=wrap;html=1;fillColor=#1ba1e2;strokeColor=#006EAF;fontColor=#ffffff;rotation=90;" vertex="1" parent="1">
          <mxGeometry x="210" y="596.86" width="20" height="60" as="geometry" />
        </mxCell>
        <mxCell id="c8WzMOXJUV4LEf6w_ohf-36" value="" style="rounded=0;whiteSpace=wrap;html=1;fillColor=#1ba1e2;strokeColor=#006EAF;fontColor=#ffffff;rotation=90;" vertex="1" parent="1">
          <mxGeometry x="210" y="480" width="20" height="60" as="geometry" />
        </mxCell>
        <mxCell id="c8WzMOXJUV4LEf6w_ohf-37" value="" style="rounded=0;whiteSpace=wrap;html=1;fillColor=#1ba1e2;strokeColor=#006EAF;fontColor=#ffffff;rotation=90;" vertex="1" parent="1">
          <mxGeometry x="210" y="506.62" width="20" height="60" as="geometry" />
        </mxCell>
        <mxCell id="c8WzMOXJUV4LEf6w_ohf-60" value="" style="edgeStyle=orthogonalEdgeStyle;rounded=0;orthogonalLoop=1;jettySize=auto;html=1;" edge="1" parent="1" source="c8WzMOXJUV4LEf6w_ohf-38" target="c8WzMOXJUV4LEf6w_ohf-59">
          <mxGeometry relative="1" as="geometry" />
        </mxCell>
        <mxCell id="c8WzMOXJUV4LEf6w_ohf-38" value="" style="rounded=0;whiteSpace=wrap;html=1;fillColor=#1ba1e2;strokeColor=#006EAF;fontColor=#ffffff;rotation=90;" vertex="1" parent="1">
          <mxGeometry x="210" y="531.86" width="20" height="60" as="geometry" />
        </mxCell>
        <mxCell id="c8WzMOXJUV4LEf6w_ohf-41" value="" style="endArrow=classic;html=1;rounded=0;entryX=0.019;entryY=0.032;entryDx=0;entryDy=0;entryPerimeter=0;exitX=1;exitY=0;exitDx=0;exitDy=0;" edge="1" parent="1" target="c8WzMOXJUV4LEf6w_ohf-27">
          <mxGeometry width="50" height="50" relative="1" as="geometry">
            <mxPoint x="250" y="596.86" as="sourcePoint" />
            <mxPoint x="299" y="597.86" as="targetPoint" />
            <Array as="points" />
          </mxGeometry>
        </mxCell>
        <mxCell id="c8WzMOXJUV4LEf6w_ohf-43" value="inner block" style="rounded=1;whiteSpace=wrap;html=1;fillColor=#dae8fc;strokeColor=#6c8ebf;" vertex="1" parent="1">
          <mxGeometry x="260" y="255.38" width="60" height="30" as="geometry" />
        </mxCell>
        <mxCell id="c8WzMOXJUV4LEf6w_ohf-47" value="" style="verticalLabelPosition=bottom;verticalAlign=top;html=1;shape=mxgraph.flowchart.summing_function;" vertex="1" parent="1">
          <mxGeometry x="275" y="204.38" width="30" height="32" as="geometry" />
        </mxCell>
        <mxCell id="c8WzMOXJUV4LEf6w_ohf-51" value="" style="rounded=0;whiteSpace=wrap;html=1;fillColor=#EA6B66;strokeColor=#b85450;rotation=90;" vertex="1" parent="1">
          <mxGeometry x="210" y="201.38" width="20" height="60" as="geometry" />
        </mxCell>
        <mxCell id="c8WzMOXJUV4LEf6w_ohf-52" value="" style="endArrow=classic;html=1;rounded=0;entryX=0;entryY=0.5;entryDx=0;entryDy=0;entryPerimeter=0;" edge="1" parent="1" target="c8WzMOXJUV4LEf6w_ohf-47">
          <mxGeometry width="50" height="50" relative="1" as="geometry">
            <mxPoint x="250" y="220" as="sourcePoint" />
            <mxPoint x="300" y="170" as="targetPoint" />
          </mxGeometry>
        </mxCell>
        <mxCell id="c8WzMOXJUV4LEf6w_ohf-54" value="" style="endArrow=classic;html=1;rounded=0;entryX=0.961;entryY=-0.14;entryDx=0;entryDy=0;entryPerimeter=0;exitX=0.833;exitY=0.503;exitDx=0;exitDy=0;exitPerimeter=0;" edge="1" parent="1" source="c8WzMOXJUV4LEf6w_ohf-47" target="c8WzMOXJUV4LEf6w_ohf-27">
          <mxGeometry width="50" height="50" relative="1" as="geometry">
            <mxPoint x="310" y="220" as="sourcePoint" />
            <mxPoint x="350" y="170" as="targetPoint" />
          </mxGeometry>
        </mxCell>
        <mxCell id="c8WzMOXJUV4LEf6w_ohf-58" value="inner block" style="rounded=1;whiteSpace=wrap;html=1;fillColor=#dae8fc;strokeColor=#6c8ebf;" vertex="1" parent="1">
          <mxGeometry x="260" y="544.76" width="60" height="30" as="geometry" />
        </mxCell>
        <mxCell id="c8WzMOXJUV4LEf6w_ohf-59" value="" style="verticalLabelPosition=bottom;verticalAlign=top;html=1;shape=mxgraph.flowchart.summing_function;" vertex="1" parent="1">
          <mxGeometry x="275" y="581" width="30" height="32" as="geometry" />
        </mxCell>
        <mxCell id="c8WzMOXJUV4LEf6w_ohf-61" value="" style="endArrow=none;html=1;rounded=0;exitX=0.513;exitY=0.997;exitDx=0;exitDy=0;exitPerimeter=0;" edge="1" parent="1" source="c8WzMOXJUV4LEf6w_ohf-27">
          <mxGeometry width="50" height="50" relative="1" as="geometry">
            <mxPoint x="364" y="401" as="sourcePoint" />
            <mxPoint x="400" y="400" as="targetPoint" />
          </mxGeometry>
        </mxCell>
        <mxCell id="c8WzMOXJUV4LEf6w_ohf-62" value="output" style="rounded=1;whiteSpace=wrap;html=1;" vertex="1" parent="1">
          <mxGeometry x="400" y="388" width="50" height="25" as="geometry" />
        </mxCell>
      </root>
    </mxGraphModel>
  </diagram>
</mxfile>
